<svg width="240" height="240" viewBox="0 0 240 240" fill="none" xmlns="http://www.w3.org/2000/svg">
<path d="M228.6 34.3125H240V45.7125H228.6V34.3125ZM228.6 114.263H205.725V125.738H217.125V160.012H194.25V148.613H182.85V171.413H217.125V205.763H228.6V171.413H240V160.012H228.6V114.263ZM228.6 68.5875H217.125V79.9875H205.725V91.4625H217.125V102.863H228.6V91.4625H240V79.9875H228.6V68.5875Z" fill="#171717"/>
<path d="M194.25 125.738H205.725V148.613H194.25V125.738ZM182.85 45.7125H194.25V57.1875H182.85V45.7125ZM171.45 91.4625H182.85V114.263H171.45V91.4625ZM91.425 194.288V137.138H80.025V171.413H68.55V182.888H57.15V205.763H68.55V217.163H171.45V205.763H182.85V182.888H171.45V171.413H159.975V137.138H148.575V194.288H91.425ZM159.975 114.263H171.45V125.738H159.975V114.263ZM159.975 79.9875H171.45V91.4625H159.975V79.9875ZM148.575 22.8375H159.975V34.3125H148.575V22.8375ZM137.175 125.738H148.575V137.138H137.175V125.738ZM137.175 79.9875H148.575V91.4625H137.175V79.9875Z" fill="#171717"/>
<path d="M125.7 148.613H137.175V160.013H125.7V148.613ZM102.825 171.413H137.175V182.888H102.825V171.413ZM102.825 114.263H137.175V125.738H102.825V114.263ZM102.825 148.613H114.3V160.013H102.825V148.613ZM102.825 57.1875V68.5875H91.425V79.9875H102.825V91.4625H114.3V79.9875H125.7V68.5875H114.3V57.1875H102.825ZM91.425 125.738H102.825V137.138H91.425V125.738ZM68.55 91.4625H91.425V102.863H68.55V91.4625ZM68.55 114.263H80.025V125.738H68.55V114.263ZM68.55 22.8375H80.025V34.3125H68.55V22.8375ZM57.15 102.863H68.55V114.263H57.15V102.863ZM22.875 114.263V125.738H34.275V160.013H11.4V148.613H0V171.413H34.275V194.288H45.75V171.413H57.15V160.013H45.75V114.263H22.875ZM45.75 68.5875H57.15V79.9875H45.75V68.5875Z" fill="#171717"/>
<path d="M11.4 125.737H22.875V148.613H11.4V125.737ZM11.4 34.3125V45.7125H0V57.1875H11.4V68.5875H22.875V57.1875H34.275V45.7125H22.875V34.3125H11.4Z" fill="#171717"/>
</svg>
