<svg width="230" height="100" viewBox="0 0 230 100" fill="none" xmlns="http://www.w3.org/2000/svg">
<path d="M12.5 100V87.5H50V100H12.5ZM0 87.5V75H12.5V87.5H0ZM50 87.5V50H62.5V87.5H50ZM0 50V0H62.5V12.5H12.5V37.5H50V50H0ZM96 100V87.5H133.5V100H96ZM108.5 62.5V37.5H121V62.5H108.5ZM83.5 87.5V12.5H96V62.5H108.5V75H96V87.5H83.5ZM133.5 87.5V37.5H121V25H133.5V12.5H146V87.5H133.5ZM96 12.5V0H133.5V12.5H96ZM179.5 100V87.5H217V100H179.5ZM167 87.5V75H179.5V87.5H167ZM217 87.5V50H229.5V87.5H217ZM192 50V37.5H217V50H192ZM167 25V12.5H179.5V25H167ZM217 37.5V12.5H229.5V37.5H217ZM179.5 12.5V0H217V12.5H179.5Z" fill="#171717"/>
</svg>
