<svg width="24" height="24" viewBox="0 0 24 24" fill="none" xmlns="http://www.w3.org/2000/svg">
<path fill-rule="evenodd" clip-rule="evenodd" d="M6.94695 4.08439C7.59544 4.07235 8.243 4.13884 8.87551 4.2824C9.40806 4.39867 9.91367 4.61502 10.3655 4.91997C10.7828 5.2232 11.1129 5.63087 11.3228 6.10205C11.5641 6.68145 11.6805 7.30519 11.6644 7.9326C11.6918 8.6215 11.5158 9.30323 11.1585 9.89283C10.7825 10.4497 10.2629 10.8944 9.65465 11.1799C10.4801 11.4024 11.199 11.9121 11.6822 12.6174C12.1461 13.3646 12.3792 14.2321 12.3525 15.1112C12.3677 15.8121 12.2228 16.5073 11.9287 17.1437C11.6569 17.6989 11.2588 18.1827 10.7664 18.5565C10.2595 18.9261 9.68905 19.1996 9.08341 19.3634C8.45535 19.5371 7.80651 19.6244 7.15486 19.6227H0V4.08439H6.94695ZM6.53412 10.369C7.04364 10.39 7.54521 10.2375 7.95677 9.9364C8.15388 9.76092 8.30721 9.54178 8.4045 9.29648C8.5018 9.05117 8.54037 8.78651 8.51712 8.52364C8.53031 8.21662 8.46918 7.91095 8.33892 7.63262C8.22842 7.41102 8.05661 7.2258 7.84391 7.099C7.62848 6.95942 7.38643 6.86604 7.13308 6.82477C6.85818 6.77151 6.57845 6.74729 6.29849 6.75249H3.24132V10.3829H6.53412V10.369ZM6.71232 16.9843C7.02046 16.9885 7.32796 16.9553 7.62809 16.8853C7.90236 16.8248 8.16247 16.7122 8.39436 16.5537C8.62153 16.3953 8.80506 16.1821 8.92798 15.9339C9.0705 15.6175 9.13598 15.2718 9.11905 14.9251C9.14995 14.6092 9.10811 14.2904 8.99674 13.9932C8.88537 13.696 8.70742 13.4282 8.47653 13.2104C7.98717 12.85 7.38745 12.6714 6.78063 12.7055H3.24132V16.9843H6.71232Z" fill="#171717"/>
<path fill-rule="evenodd" clip-rule="evenodd" d="M16.9689 16.9268C17.2233 17.1626 17.523 17.3443 17.8497 17.4607C18.1765 17.5771 18.5235 17.6259 18.8697 17.604C19.4185 17.6179 19.9567 17.4509 20.4013 17.1288C20.7629 16.8936 21.0368 16.5456 21.1804 16.1388H23.7653C23.4899 17.2969 22.8173 18.3219 21.8645 19.0356C20.9504 19.6423 19.8702 19.9495 18.7737 19.9147C17.9911 19.925 17.2144 19.7779 16.4897 19.4821C15.8342 19.2087 15.2463 18.7955 14.7671 18.2713C14.2897 17.722 13.9229 17.0856 13.687 16.3972C13.4221 15.6276 13.2925 14.8181 13.3038 14.0043C13.299 13.2042 13.433 12.4093 13.6998 11.655C14.0583 10.5938 14.7438 9.67346 15.6578 9.02603C16.5719 8.37861 17.6675 8.03738 18.7875 8.05132C19.6144 8.03404 20.4321 8.22756 21.1636 8.61365C21.8247 8.9762 22.3951 9.48393 22.8318 10.0987C23.2784 10.7437 23.5986 11.4677 23.7752 12.2322C23.969 13.0531 24.0381 13.8984 23.9802 14.7399H16.2808C16.2184 15.5305 16.4651 16.3144 16.9689 16.9268ZM20.3468 11.0174C20.1314 10.8019 19.8722 10.6351 19.5868 10.5282C19.3015 10.4213 18.9965 10.3768 18.6925 10.3977C18.2892 10.3823 17.8887 10.4716 17.5302 10.6571C17.246 10.8135 16.9951 11.0241 16.7917 11.2768C16.6114 11.5138 16.4771 11.7824 16.3957 12.0688C16.3223 12.3077 16.2765 12.5541 16.259 12.8034H21.0279C20.9864 12.1536 20.7497 11.5315 20.3488 11.0184L20.3468 11.0174Z" fill="#171717"/>
<path d="M15.6443 5.12188H21.62V6.64948H15.6443V5.12188Z" fill="#171717"/>
</svg>
