<svg width="22" height="22" viewBox="0 0 22 22" fill="none" xmlns="http://www.w3.org/2000/svg">
<path d="M10.8008 0.799805C13.3021 3.53816 14.7235 7.09184 14.8008 10.7998C14.7235 14.5078 13.3021 18.0615 10.8008 20.7998M10.8008 0.799805C8.2995 3.53816 6.87803 7.09184 6.80078 10.7998C6.87803 14.5078 8.2995 18.0615 10.8008 20.7998M10.8008 0.799805C5.27793 0.799805 0.800781 5.27696 0.800781 10.7998C0.800781 16.3227 5.27793 20.7998 10.8008 20.7998M10.8008 0.799805C16.3236 0.799805 20.8008 5.27696 20.8008 10.7998C20.8008 16.3227 16.3236 20.7998 10.8008 20.7998M1.3008 7.7998H20.3008M1.30078 13.7998H20.3008" stroke="#171717" stroke-width="1.6" stroke-linecap="round" stroke-linejoin="round"/>
</svg>
